<svg id="Capa_1" enable-background="new 0 0 512 512" height="512" viewBox="0 0 512 512" width="512" xmlns="http://www.w3.org/2000/svg"><g><path d="m287.867 135.967h-224.133v297.085h224.133 224.133v-297.085z" fill="#738c28"/><g><path d="m224.133 78.948h-138.725l-85.408 85.407v119.555l85.408 85.408h138.725l30-157.1z" fill="#c3dc4b"/><g fill="#e1f573"><path d="m85.408 78.948h-85.408v85.408c47.17-.001 85.408-38.239 85.408-85.408z"/><path d="m0 283.91v85.408h85.408c0-47.169-38.238-85.408-85.408-85.408z"/></g></g><g><path d="m362.857 78.948h-138.724v290.37h138.724l85.409-85.408v-119.555z" fill="#a0be28"/><g fill="#c3dc4b"><path d="m362.857 369.318h85.408v-85.408c-47.169 0-85.408 38.239-85.408 85.408z"/><path d="m362.857 78.948c0 47.169 38.238 85.408 85.408 85.408v-85.408z"/></g></g><g><path d="m167.126 272.867v30h42.007v18.65h15l10-30.184-10-18.466z" fill="#ffe477"/><path d="m198.06 175.398h26.073l10-21.731-10-26.919h-15v18.65h-41.073v93.735h56.073l10-15-10-15h-26.073z" fill="#ffe477"/><g fill="#ffb655"><path d="m250.206 239.133v33.734h-26.073v48.65h15v-18.65h41.073v-93.734h-56.073v30z"/><path d="m281.14 175.398v-30h-42.007v-18.65h-15v48.65z"/></g></g></g></svg>