<svg id="Capa_1" enable-background="new 0 0 512.434 512.434" height="512" viewBox="0 0 512.434 512.434" width="512" xmlns="http://www.w3.org/2000/svg"><g><g><path d="m213.316 117.051c0-23.694 19.207-42.901 42.901-42.901l20-41.548-20-32.602h-47.467l-129.955 150.495v361.939h177.421l30-181.347-30-171.135c-23.693 0-42.9-19.208-42.9-42.901z" fill="#fff5f5"/><path d="m433.638 150.495-129.954-150.495h-47.467v74.15c23.694 0 42.901 19.207 42.901 42.901s-19.207 42.901-42.901 42.901v352.482h177.421z" fill="#dce6eb"/></g><g><path d="m193.969 405.473v30h47.248v29.076h15l10-29.538-10-29.538z" fill="#c3dc4b"/><path d="m226.367 296.285h29.85l10-29.538-10-29.538h-15v29.076h-44.85v99.594h59.85l10-15.112-10-14.888h-29.85z" fill="#c3dc4b"/><g fill="#a0be28"><path d="m318.465 296.285v-30h-47.248v-29.076h-15v59.076z"/><path d="m286.066 365.879v39.594h-29.849v59.076h15v-29.076h44.849v-99.594h-59.849v30z"/></g></g></g></svg>