<svg id="Capa_1" enable-background="new 0 0 512.141 512.141" height="512" viewBox="0 0 512.141 512.141" width="512" xmlns="http://www.w3.org/2000/svg"><g><path d="m512.141 388.851c0 17.6-14.267 31.867-31.867 31.867h-45.27v-97.912h59.333c.001 0 17.804 22.265 17.804 66.045z" fill="#9b5e34"/><path d="m122.432 221.975 184.225-184.226c11.716-11.716 30.711-11.716 42.426 0l47.799 47.799-1.344 18.656 22.557 2.557 13.247 13.247c11.716 11.716 11.716 30.711 0 42.426l-184.225 184.226c-11.716 11.716-30.711 11.716-42.426 0l-82.259-82.259c-11.716-11.716-11.716-30.711 0-42.426z" fill="#dce6eb"/><g><path d="m133.896 194.48h320.534v30h-320.534z" fill="#03232e" transform="matrix(.707 -.707 .707 .707 -61.967 269.36)"/></g><path d="m7.567 104.039h320.534v176.332h-320.534z" fill="#a0be28" transform="matrix(0 1 -1 0 360.039 24.371)"/><path d="m-56.167 72.172h320.534v176.332h-320.534z" fill="#c3dc4b" transform="matrix(0 1 -1 0 264.437 56.238)"/><circle cx="104.1" cy="160.337" fill="#e1f573" r="88.166"/><g><path d="m31.867 201.896c-17.6 0-31.867 14.268-31.867 31.868v246.44l256-31.867 20-116.383-20-130.057h-224.133z" fill="#d19a75"/><path d="m448.407 201.896h-192.407v256.44l192.407-10z" fill="#c47e4e"/></g><path d="m512.141 388.851v-63.734c0-17.6-14.267-31.867-31.867-31.867h-152.306l-21.245 29.557 21.245 34.177h152.306c17.6-.001 31.867 14.267 31.867 31.867z" fill="#d19a75"/><g><path d="m31.867 448.336c-17.6 0-31.867 14.268-31.867 31.867s14.267 31.867 31.867 31.867h224.133l20-31.867-20-31.867z" fill="#c47e4e"/><path d="m256 448.336h192.407v63.734h-192.407z" fill="#9b5e34"/></g></g></svg>