<svg id="Capa_1" enable-background="new 0 0 512 512" height="512" viewBox="0 0 512 512" width="512" xmlns="http://www.w3.org/2000/svg"><g><path d="m277.942 492h-229.494c-16.569 0-30-49.033-30-65.602v-396.398c0-16.569 13.431-30 30-30h37.734l77.012 10 77.012-10h37.734c16.569 0 30 13.431 30 30v396.398c.002 16.569-13.43 65.602-29.998 65.602z" fill="#07485e"/><path d="m277.942 0h-37.734l-77.012 10v482h114.747c16.569 0 30-49.033 30-65.602v-396.398c-.001-16.569-13.433-30-30.001-30z" fill="#03232e"/><path d="m48.448 512h229.494c16.569 0 30-13.431 30-30v-55.602c0 17.6-14.267 31.867-31.867 31.867h-225.76c-17.6 0-31.867-14.267-31.867-31.867v55.602c0 16.569 13.432 30 30 30z" fill="#dce6eb"/><path d="m276.075 458.266h-112.88v53.734h114.747c16.569 0 30-13.431 30-30v-55.602c0 17.6-14.268 31.868-31.867 31.868z" fill="#c8d2dc"/><path d="m86.183 0 21.244 43.734h111.536l21.244-43.734z" fill="#dce6eb"/><path d="m163.195 0v43.734h55.768l21.244-43.734z" fill="#c8d2dc"/><path d="m493.552 370.186h-296.742v-228.372l148.371 10 148.371-10z" fill="#ffb655"/><path d="m493.552 370.186h-148.371v-218.372l148.371-10z" fill="#ff7c48"/><path d="m196.81 141.814 148.371 114.186 148.371-114.186z" fill="#ffe477"/><path d="m345.181 141.814v114.186l148.371-114.186z" fill="#ffb655"/></g></svg>