<svg id="Capa_1" enable-background="new 0 0 512 512" height="512" viewBox="0 0 512 512" width="512" xmlns="http://www.w3.org/2000/svg"><g><path d="m279.049 167.838c-7.608-1.087-15.282-1.838-23.049-1.838-49.102 0-96.123 22.295-127.28 60h-128.72v180h128.72c31.157 37.705 78.179 60 127.28 60s96.123-22.295 127.28-60l13.932-55.759z" fill="#f89580"/><path d="m383.28 406 13.932-55.759-118.163-182.403c-7.608-1.087-15.282-1.838-23.049-1.838v300c49.102 0 96.123-22.295 127.28-60z" fill="#e87664"/><g><path d="m369.042 238.759-84.542 8.542 39.28 63.31 22.446 16.287 74.027-36.928z" fill="#f89580"/></g><g><path d="m316.003 91.002h59.994v29.997h-59.994z" fill="#fabe2c" transform="matrix(.707 -.707 .707 .707 26.388 275.706)"/></g><g><path d="m151.002 76.003h29.997v59.994h-29.997z" fill="#fed843" transform="matrix(.707 -.707 .707 .707 -26.333 148.426)"/></g><path d="m256 46h-15v60h15 15v-60z" fill="#fed843"/><path d="m256 46h15v60h-15z" fill="#fabe2c"/><path d="m305.446 268.783c-.011-.011-.026-.013-.037-.024.377.382.35.35.037.024z"/><g><path d="m383.28 226c-26.519-32.093-64.125-52.421-104.231-58.162l-23.049 23.052-67.685 67.689 10.602 10.602c15.639 15.639 39.542 17.149 57.083 4.954 2.172-1.509 4.622-3.019 6.557-4.954l21.943-21.879c2.582 2.618 18.801 19.261 20.945 21.482 17.549 17.516 46.058 17.514 63.596-.024l21.211 21.211c-14.619 14.619-33.823 21.929-53.027 21.929-4.504 0-9-.483-13.445-1.287l59.5 95.387h128.72v-180z" fill="#fdc"/><path d="m284.5 247.301c2.582 2.618 18.801 19.261 20.945 21.482 17.549 17.516 46.058 17.514 63.596-.024l21.211 21.211c-14.619 14.619-33.823 21.929-53.027 21.929-4.504 0-9-.483-13.445-1.287l59.5 95.388h128.72v-180h-128.72c-26.519-32.093-64.125-52.421-104.231-58.162l-23.049 23.052v83.245c2.172-1.509 4.622-3.019 6.557-4.954z" fill="#ffbfab"/></g></g></svg>