<svg id="Capa_1" enable-background="new 0 0 512 512" height="512" viewBox="0 0 512 512" width="512" xmlns="http://www.w3.org/2000/svg"><g><path d="m209.488 481c-7.335-50.821-50.636-90-103.488-90-57.99 0-106 48.01-106 106v15h151l30-31z" fill="#97de3d"/><path d="m406 391c-52.852 0-96.152 39.179-103.488 90h28.488l30 31h151v-15c0-57.99-48.01-106-106-106z" fill="#f03800"/><path d="m106 391c-33.091 0-60-26.909-60-60s26.909-60 60-60 60 26.909 60 60-26.909 60-60 60z" fill="#ffbfab"/><path d="m406 391c-33.091 0-60-26.909-60-60s26.909-60 60-60 60 26.909 60 60-26.909 60-60 60z" fill="#f89580"/><path d="m121 211h-30v-121h60v30h-30z" fill="#384949"/><path d="m421 211h-30v-91h-30v-30h60z" fill="#293939"/><path d="m293.207 0c-16.479 0-28.696 7.529-37.207 17.007-8.511-9.478-20.728-17.007-37.207-17.007-29.282 0-52.222 24.331-52.222 55.4 0 32.607 25.342 53.994 60.425 83.584 6.021 5.098 12.437 11.503 19.175 17.348l9.829 8.511 9.829-8.511c6.724-5.83 13.14-12.25 19.16-17.333 29.502-24.882 60.439-48.6 60.439-83.599.001-31.069-22.939-55.4-52.221-55.4z" fill="#ff641a"/><path d="m284.989 138.999c29.502-24.882 60.439-48.6 60.439-83.599 0-31.069-22.939-55.4-52.222-55.4-16.478 0-28.695 7.529-37.206 17.007v147.836l9.829-8.511c6.724-5.83 13.14-12.25 19.16-17.333z" fill="#f03800"/><circle cx="256" cy="256" fill="#fdc" r="75"/><path d="m331 256c0-41.353-33.647-75-75-75v150c41.353 0 75-33.647 75-75z" fill="#ffbfab"/><path d="m256 331c-57.891 0-105 47.109-105 105v76h105 105v-76c0-57.891-47.109-105-105-105z" fill="#fed843"/><path d="m361 436c0-57.891-47.109-105-105-105v181h105z" fill="#fabe2c"/></g></svg>